<?xml version="1.0" encoding="UTF-8"?>
<svg version="1.1" xmlns="http://www.w3.org/2000/svg" width="600" height="300">
<path d="M0 0 C99 0 198 0 300 0 C300 99 300 198 300 300 C201 300 102 300 0 300 C0 201 0 102 0 0 Z " fill="#E30116" transform="translate(150,0)"/>
<path d="M0 0 C99 0 198 0 300 0 C300 99 300 198 300 300 C201 300 102 300 0 300 C0 201 0 102 0 0 Z M31 32 C30.37222656 32.52078125 29.74445313 33.0415625 29.09765625 33.578125 C19.17385509 42.48929339 13.63604981 56.02904837 12 69 C11.90371627 71.36933078 11.85281772 73.74079708 11.83937073 76.11204529 C11.83428291 76.79277401 11.82919509 77.47350272 11.82395309 78.17485958 C11.80835914 80.43745342 11.79973834 82.70001563 11.79125977 84.96264648 C11.78171053 86.59287206 11.77181891 88.22309567 11.76161194 89.85331726 C11.73034365 95.19255197 11.70996991 100.53180168 11.69140625 105.87109375 C11.68810893 106.782343 11.68481161 107.69359225 11.68141437 108.63245511 C11.65063351 117.24141076 11.62395247 125.85037018 11.60699558 134.45936489 C11.5851241 145.43084417 11.54320824 156.40183205 11.47355801 167.373115 C11.42613177 175.10932031 11.40203719 182.84539394 11.3947987 190.58173996 C11.38986983 195.19118521 11.37505523 199.80007536 11.3350544 204.40936089 C11.29784445 208.75411478 11.28988912 213.09800439 11.30306053 217.44288826 C11.30300715 219.0245779 11.29294422 220.60630929 11.2713089 222.18785095 C11.03684903 240.31772457 17.12805351 255.94902474 29.75 269.25 C41.27820073 280.18878896 56.1689318 287.14629545 72.2590332 287.11352539 C73.51719849 287.11340454 74.77536377 287.11328369 76.07165527 287.11315918 C78.04132263 287.10548523 78.04132263 287.10548523 80.05078125 287.09765625 C81.87144104 287.09614563 81.87144104 287.09614563 83.72888184 287.09460449 C88.25676419 287.08937811 92.78463306 287.07541684 97.3125 287.0625 C107.439375 287.041875 117.56625 287.02125 128 287 C128 266.54 128 246.08 128 225 C119.09 224.67 110.18 224.34 101 224 C89.25749645 218.78110954 82.82452228 214.38196781 76.94348145 202.94544983 C75.6213201 198.8178012 75.68869014 194.93676699 75.67773438 190.62670898 C75.66780457 189.68940445 75.65787476 188.75209991 75.64764404 187.78639221 C75.61846988 184.68959593 75.60480586 181.59300481 75.59375 178.49609375 C75.5822379 176.33480325 75.57072255 174.17351276 75.5592041 172.01222229 C75.53820135 167.4787603 75.52650593 162.94536902 75.51953125 158.41186523 C75.50858922 152.62728059 75.46058796 146.84364402 75.40358734 141.05935574 C75.36616813 136.59210059 75.35591446 132.12506954 75.3528595 127.65767097 C75.34683873 125.52677309 75.3308915 123.39587763 75.30448914 121.26513481 C75.03269563 97.63637083 75.03269563 97.63637083 84.0098877 87.79710388 C92.26879279 79.83934693 100.90025661 77.86330758 112.00610352 77.80712891 C113.35353889 77.79486267 113.35353889 77.79486267 114.72819519 77.78234863 C117.69509226 77.75757994 120.66194165 77.74099769 123.62890625 77.7265625 C124.64640394 77.72123882 125.66390163 77.71591515 126.71223259 77.71043015 C132.10119751 77.68373164 137.49013957 77.66434885 142.87915039 77.64990234 C147.32239463 77.63658439 151.76517734 77.60876606 156.20825195 77.56787109 C161.58925339 77.51835313 166.96983753 77.49375767 172.35105705 77.48667526 C174.39263404 77.47999447 176.43420288 77.46485601 178.47564888 77.44078445 C192.3425167 77.28664175 204.60743093 77.77842068 215.24609375 87.90625 C222.22465992 96.23701051 224.14208669 104.15076054 224.17700195 114.76245117 C224.18357315 115.6346933 224.19014435 116.50693542 224.19691467 117.40560913 C224.21658216 120.28472999 224.22829619 123.16379881 224.23828125 126.04296875 C224.24235678 127.02986506 224.2464323 128.01676136 224.25063133 129.03356361 C224.27146501 134.25813205 224.28577794 139.48267444 224.29516602 144.70727539 C224.30621963 150.08602638 224.34061543 155.46436247 224.38033772 160.84296703 C224.40656111 164.99443803 224.41486298 169.14581103 224.41844749 173.29735756 C224.42329929 175.27916577 224.43487285 177.26097002 224.45348549 179.24269676 C224.57601577 193.15427672 223.96040901 204.3281332 214 215 C201.65070387 226.29883733 189.48494021 224.3275023 172 225 C172 245.46 172 265.92 172 287 C186.540625 287.061875 186.540625 287.061875 201.375 287.125 C204.41638184 287.14320801 207.45776367 287.16141602 210.59130859 287.18017578 C213.02701644 287.18602211 215.46272625 287.19111734 217.8984375 287.1953125 C219.14278564 287.20554443 220.38713379 287.21577637 221.66918945 287.22631836 C238.00190091 287.22956219 252.02862589 283.20810604 265 273 C265.83789062 272.35933594 266.67578125 271.71867187 267.5390625 271.05859375 C279.33448077 261.19163275 285.45717471 246.82500167 288 232 C288.40066548 226.72296023 288.411965 221.46987908 288.38818359 216.18237305 C288.39225965 214.63992951 288.39760727 213.09748891 288.40411377 211.55505371 C288.41767389 207.40398095 288.41253507 203.25313439 288.40297651 199.10205817 C288.39531664 194.73069691 288.4024433 190.35935346 288.40713501 185.98799133 C288.41257603 178.64731414 288.40544638 171.30672781 288.39111328 163.96606445 C288.37480826 155.5187556 288.38006634 147.07166428 288.3965925 138.62436074 C288.41027664 131.33386891 288.41209287 124.04344197 288.40427649 116.75294143 C288.39963545 112.41541954 288.39887504 108.07799931 288.40888596 103.74048424 C288.41765431 99.65680062 288.41135701 95.57339279 288.39420319 91.48973846 C288.39028953 90.00483721 288.39128247 88.51991209 288.39799118 87.03502083 C288.48065281 66.8530908 284.80399938 49.05166066 270.32421875 34.203125 C269.55722656 33.47609375 268.79023438 32.7490625 268 32 C266.89591797 30.94039062 266.89591797 30.94039062 265.76953125 29.859375 C260.93297233 25.61422111 255.8365307 22.72745354 250 20.125 C249.3598999 19.83858643 248.7197998 19.55217285 248.06030273 19.25708008 C237.56212701 14.85359398 226.98090637 14.70115997 215.75683594 14.70947266 C214.13277379 14.70347823 212.50871446 14.6966706 210.88465881 14.68911743 C206.4980718 14.67154309 202.11156294 14.66676568 197.72494411 14.66548586 C194.97727852 14.66405881 192.22963246 14.65977878 189.48197174 14.65449142 C179.87615205 14.63601938 170.27038765 14.62781725 160.66455078 14.62939453 C151.74292676 14.63059511 142.82154498 14.60950189 133.89998221 14.5779072 C126.21298972 14.55166504 118.52607597 14.54103055 110.83903909 14.54230535 C106.26003496 14.54281266 101.68124636 14.53725837 97.10228729 14.51594925 C92.7912623 14.4964324 88.48065547 14.49653314 84.16961479 14.51098251 C82.59839954 14.51305517 81.02715717 14.50846319 79.45598793 14.4962616 C60.57743964 14.35928865 45.3185032 19.49856573 31 32 Z " fill="#FDFBFB" transform="translate(150,0)"/>
<path d="M0 0 C0.33 2.31 0.66 4.62 1 7 C3.64 7 6.28 7 9 7 C9.33 4.69 9.66 2.38 10 0 C16.14961761 1.68089548 20.3575305 3.59560586 25 8 C23.71034824 9.37562854 22.37310707 10.70766393 21 12 C20.34 12 19.68 12 19 12 C20.32 13.65 21.64 15.3 23 17 C23.598125 16.484375 24.19625 15.96875 24.8125 15.4375 C25.534375 14.963125 26.25625 14.48875 27 14 C27.99 14.33 28.98 14.66 30 15 C32.34551123 19.93791838 32.2134222 24.66444505 32 30 C29.36 30 26.72 30 24 30 C24 31.32 24 32.64 24 34 C24.78375 34.12375 25.5675 34.2475 26.375 34.375 C29 35 29 35 31 37 C30.04532436 38.62715156 29.08613152 40.25165346 28.125 41.875 C27.59132813 42.77992188 27.05765625 43.68484375 26.5078125 44.6171875 C25 47 25 47 23 49 C22.01 49 21.02 49 20 49 C19.34 47.35 18.68 45.7 18 44 C17.21625 44.495 16.4325 44.99 15.625 45.5 C13 47 13 47 11 47 C11.33 47.763125 11.66 48.52625 12 49.3125 C13 52 13 52 13 55 C9.57767028 56.14077657 6.91326783 56.09815117 3.3125 56.0625 C1.54326172 56.04896484 1.54326172 56.04896484 -0.26171875 56.03515625 C-1.16535156 56.02355469 -2.06898438 56.01195312 -3 56 C-2.67 53.36 -2.34 50.72 -2 48 C-4.31 47.34 -6.62 46.68 -9 46 C-9.99 48.475 -9.99 48.475 -11 51 C-16.56261684 49.69114898 -19.1146132 45.61114029 -22 41 C-22.495 39.515 -22.495 39.515 -23 38 C-21.02 37.34 -19.04 36.68 -17 36 C-17 34.02 -17 32.04 -17 30 C-19.31 30 -21.62 30 -24 30 C-24.37952295 23.80112515 -23.8352113 19.5522888 -21 14 C-17.535 15.98 -17.535 15.98 -14 18 C-12.35047231 14.52248099 -12.35047231 14.52248099 -12.25 10.75 C-12.86298195 8.79936642 -12.86298195 8.79936642 -15 8 C-13.77594541 4.32783624 -12.16215593 3.63472249 -8.84765625 1.8515625 C-5.92176288 0.5030535 -3.20039986 0 0 0 Z " fill="#E30316" transform="translate(296,94)"/>
<path d="M0 0 C3.03861053 2.87691063 5.42808314 5.87913398 7.8125 9.3125 C10.7127413 13.36209618 13.68539905 16.89978481 17.28515625 20.328125 C19.76000889 22.74096539 21.98967049 25.34230671 24.23828125 27.96484375 C25.42115977 29.3313176 26.62755223 30.67775641 27.85546875 32.00390625 C38.38625797 43.47775122 39.30179067 55.03165419 39.1953125 70.09375 C39.19157684 71.65173154 39.18873248 73.20971545 39.18673706 74.7677002 C39.17914408 78.84475323 39.15953344 82.92166108 39.1373291 86.99865723 C39.11677669 91.16835568 39.10771535 95.33807786 39.09765625 99.5078125 C39.07628294 107.67194121 39.04220011 115.83595249 39 124 C37.02 124 35.04 124 33 124 C32.99453156 122.89912048 32.99453156 122.89912048 32.98895264 121.77600098 C32.95095938 114.83223032 32.8939788 107.88884184 32.81609726 100.94541168 C32.77672284 97.37635052 32.74448584 93.80753236 32.72900391 90.23828125 C32.7137702 86.78851111 32.67920863 83.33940947 32.63169098 79.88993835 C32.60980909 77.94483638 32.60753204 75.99954543 32.60565186 74.05432129 C32.46871648 65.71650957 31.45186692 60.30758183 26.140625 53.6796875 C25.51671875 53.08414063 24.8928125 52.48859375 24.25 51.875 C23.55390625 51.20855469 22.8578125 50.54210937 22.140625 49.85546875 C20.1643509 48.14245744 18.15321337 46.66677454 16 45.1875 C7.96011867 39.33168092 1.76109916 29.79893637 0 20 C-0.42226278 13.33466212 -0.23515413 6.66923232 0 0 Z " fill="#E3091A" transform="translate(254,163)"/>
<path d="M0 0 C0.33 0 0.66 0 1 0 C1.5301819 13.94672942 1.88841201 27.41517541 -7.671875 38.6796875 C-11.2347301 42.23058671 -15.03867102 45.48712221 -18.93701172 48.66430664 C-24.69553108 53.38418165 -28.95607176 57.60702147 -31 65 C-31.32102374 67.98606957 -31.32102374 67.98606957 -31.31884766 71.09716797 C-31.33871735 72.27793915 -31.35858704 73.45871033 -31.37905884 74.67526245 C-31.39638565 76.56464035 -31.39638565 76.56464035 -31.4140625 78.4921875 C-31.43342865 79.79326447 -31.4527948 81.09434143 -31.4727478 82.43484497 C-31.52387939 85.87720764 -31.56360588 89.31960922 -31.60089111 92.762146 C-31.64105048 96.28163121 -31.6920881 99.80095723 -31.7421875 103.3203125 C-31.83872167 110.21342509 -31.92319776 117.10664008 -32 124 C-33.65 124 -35.3 124 -37 124 C-37.09302318 114.65475647 -37.16392786 105.30967438 -37.20724869 95.96406746 C-37.22804935 91.62366407 -37.2562278 87.28357939 -37.30175781 82.94335938 C-37.34548621 78.74822773 -37.36919356 74.55340104 -37.37950897 70.35805893 C-37.38685225 68.76419149 -37.40119107 67.17033917 -37.42292023 65.57660294 C-37.67758164 46.10932006 -30.33578258 35.98245747 -17.25 22.07421875 C-7.54790945 11.82987971 -7.54790945 11.82987971 0 0 Z " fill="#E20213" transform="translate(344,163)"/>
<path d="M0 0 C2.0363283 2.64960845 3.8590826 5.35273787 5.625 8.1875 C9.11243085 13.46647887 13.42625842 17.66385539 18 22 C26.48044357 30.28770622 33.02127191 38.58378566 33.1953125 50.83984375 C33.18219026 52.53917347 33.15859335 54.23845169 33.125 55.9375 C33.11597656 56.81212891 33.10695313 57.68675781 33.09765625 58.58789062 C33.0742957 60.72538064 33.03843247 62.86272786 33 65 C29.90125192 61.94421549 26.92819691 58.83677152 24.0625 55.5625 C21.29936921 52.4464315 18.48766754 49.471306 15.48046875 46.58984375 C6.52719109 37.99874228 -0.64610449 30.4823178 -1.1328125 17.44140625 C-1.13023437 16.16136719 -1.12765625 14.88132813 -1.125 13.5625 C-1.12757813 12.28503906 -1.13015625 11.00757813 -1.1328125 9.69140625 C-1.01297995 6.3607663 -0.63610631 3.26635544 0 0 Z " fill="#E20215" transform="translate(259,127)"/>
<path d="M0 0 C3.94471338 6.32732026 2.64438531 15.48482023 1.34765625 22.55859375 C-1.81487368 34.08214701 -8.50447329 40.7327491 -17.14111328 48.4621582 C-22.01628029 52.87022212 -26.11469122 57.69438197 -30 63 C-33.41876754 57.87184869 -32.49494509 51.98264877 -32 46 C-29.48266817 33.88534056 -22.71897533 26.4357836 -14 18.125 C-8.25076211 12.53255951 -3.39550553 7.35692864 0 0 Z " fill="#E30416" transform="translate(339,128)"/>
<path d="M0 0 C3.5625 0.3125 3.5625 0.3125 5.5 1.5 C6.97609492 4.01804428 7.05339348 5.43726676 6.5625 8.3125 C4.53830677 11.08639443 3.41064923 12.16769403 0 12.75 C-2.4375 12.3125 -2.4375 12.3125 -4.25 11.25 C-6.084421 8.25699731 -5.74857576 5.73433337 -5.4375 2.3125 C-3.4375 0.3125 -3.4375 0.3125 0 0 Z " fill="#FAF6F6" transform="translate(299.4375,115.6875)"/>
<path d="M0 0 C2.77398263 3.46747828 4.95912413 7.06402511 7 11 C6.67 11.66 6.34 12.32 6 13 C5.01 13 4.02 13 3 13 C3 14.32 3 15.64 3 17 C2.34 17 1.68 17 1 17 C1 19.31 1 21.62 1 24 C-1.50795008 20.23807488 -1.23628327 18.17112569 -1.1875 13.6875 C-1.18105469 12.39199219 -1.17460937 11.09648437 -1.16796875 9.76171875 C-1.01854445 6.41530953 -0.63641553 3.28390415 0 0 Z " fill="#E51822" transform="translate(259,127)"/>
<path d="M0 0 C0.66 0.33 1.32 0.66 2 1 C2 3 2 3 -0.0625 5.125 C-0.51367188 5.55425781 -0.96484375 5.98351562 -1.4296875 6.42578125 C-3.9403217 8.94266081 -6.17406847 11.69660986 -8.44921875 14.42578125 C-8.96097656 14.94527344 -9.47273438 15.46476563 -10 16 C-10.66 16 -11.32 16 -12 16 C-12.33 16.66 -12.66 17.32 -13 18 C-14.32 17.67 -15.64 17.34 -17 17 C-16.27554687 16.443125 -15.55109375 15.88625 -14.8046875 15.3125 C-8.95761664 10.69721207 -4.05284769 6.2759287 0 0 Z " fill="#F8EEED" transform="translate(340,195)"/>
<path d="M0 0 C2.64 0 5.28 0 8 0 C7.67 1.98 7.34 3.96 7 6 C4.69 5.34 2.38 4.68 0 4 C0 2.68 0 1.36 0 0 Z " fill="#F5E0E0" transform="translate(320,124)"/>
<path d="M0 0 C0.33 0 0.66 0 1 0 C1 6.27 1 12.54 1 19 C0.01 18.01 -0.98 17.02 -2 16 C-1.89140867 13.15021129 -1.64357584 10.60504992 -1.1875 7.8125 C-1.07857422 7.06291016 -0.96964844 6.31332031 -0.85742188 5.54101562 C-0.58651277 3.69176651 -0.29519943 1.84552739 0 0 Z " fill="#E4212D" transform="translate(291,173)"/>
<path d="M0 0 C0.99 0.33 1.98 0.66 3 1 C2.2884375 1.61875 2.2884375 1.61875 1.5625 2.25 C-0.16266518 4.182185 -0.56584875 5.48192275 -1 8 C-0.01 8.33 0.98 8.66 2 9 C2 9.66 2 10.32 2 11 C3.32 11.33 4.64 11.66 6 12 C3.29686424 12.21917317 1.56041618 12.32851983 -0.8125 10.9375 C-2.646921 7.94449731 -2.31107576 5.42183337 -2 2 C-1.34 1.34 -0.68 0.68 0 0 Z " fill="#F5D8D8" transform="translate(296,116)"/>
<path d="M0 0 C2.95929119 2.75520215 5.03681826 5.46627288 7 9 C1.125 7.125 1.125 7.125 0 6 C-0.04080783 4.00041636 -0.04254356 1.99954746 0 0 Z " fill="#E10E1B" transform="translate(256,166)"/>
<path d="M0 0 C2.31 0.33 4.62 0.66 7 1 C7.33 1.99 7.66 2.98 8 4 C7.34 4.66 6.68 5.32 6 6 C6 4.68 6 3.36 6 2 C5.54625 2.495 5.0925 2.99 4.625 3.5 C3 5 3 5 1 5 C0.67 3.35 0.34 1.7 0 0 Z " fill="#F5D2D3" transform="translate(287,140)"/>
<path d="M0 0 C2 1 2 1 2.6875 2.9375 C3 5 3 5 2 7 C1.34 7 0.68 7 0 7 C-1.125 2.25 -1.125 2.25 0 0 Z " fill="#F7F1F0" transform="translate(310,197)"/>
<path d="M0 0 C0.99 0 1.98 0 3 0 C2.8125 2.375 2.8125 2.375 2 5 C-0.5625 6.3125 -0.5625 6.3125 -3 7 C-2.505 6.401875 -2.01 5.80375 -1.5 5.1875 C0.28276418 3.02970006 0.28276418 3.02970006 0 0 Z " fill="#F6F0EE" transform="translate(320,99)"/>
<path d="M0 0 C0.66 0.33 1.32 0.66 2 1 C0.35 2.98 -1.3 4.96 -3 7 C-4.32 6.67 -5.64 6.34 -7 6 C-4.69 4.02 -2.38 2.04 0 0 Z " fill="#F6E3E2" transform="translate(240,82)"/>
<path d="M0 0 C2.625 0.375 2.625 0.375 5 1 C3.68 2.32 2.36 3.64 1 5 C0.01 4.01 -0.98 3.02 -2 2 C-1.34 1.34 -0.68 0.68 0 0 Z " fill="#FBF5F4" transform="translate(322,143)"/>
<path d="M0 0 C0.66 0.33 1.32 0.66 2 1 C1.67 1.99 1.34 2.98 1 4 C0.34 4 -0.32 4 -1 4 C-1.33 4.66 -1.66 5.32 -2 6 C-3.32 5.67 -4.64 5.34 -6 5 C-4.02 3.35 -2.04 1.7 0 0 Z " fill="#F7E5E3" transform="translate(329,207)"/>
</svg>
